[2026-06-21T09:17:50.642Z] queued provider=seedance agent=codex duration=5s source=source_1782033454887_45jn5r frame=frames_1782033461473_ec9gf4 slot=0:00–0:05 · take 2
[2026-06-21T09:21:29.113Z] /complete received clip=2483016B; merging replace=[0.000, 5.000]
[2026-06-21T09:21:29.118Z] probe-source-before-merge START: ffprobe -v error -show_entries stream=codec_type,width,height,r_frame_rate:format=duration -of json /Users/edrlu/Documents/Cerebra/regen/sources/source_1782033454887_45jn5r/source.mp4
[2026-06-21T09:21:29.166Z] probe-source-before-merge OK in 0.05s
[2026-06-21T09:21:29.166Z] probe-generated-clip START: ffprobe -v error -show_entries stream=codec_type,width,height,r_frame_rate:format=duration -of json /Users/edrlu/Documents/Cerebra/regen/job_1782033470619_3oog9i/clip.mp4
[2026-06-21T09:21:29.189Z] probe-generated-clip OK in 0.02s
[2026-06-21T09:21:29.189Z] merge plan: source=1920x1080 fps=24000/1001 duration=30.093s audio=true; clip=1280x720 duration=5.042s audio=false; replace=[0.000, 5.000], segments=2
[2026-06-21T09:21:29.191Z] merge-ffmpeg START: ffmpeg -y -i /Users/edrlu/Documents/Cerebra/regen/sources/source_1782033454887_45jn5r/source.mp4 -i /Users/edrlu/Documents/Cerebra/regen/job_1782033470619_3oog9i/clip.mp4 -filter_complex [1:v]scale=1920:1080:force_original_aspect_ratio=decrease,pad=1920:1080:(ow-iw)/2:(oh-ih)/2,setsar=1,fps=24000/1001,format=yuv420p,setpts=PTS-STARTPTS[v1];anullsrc=channel_layout=stereo:sample_rate=44100,atrim=duration=5.042,asetpts=PTS-STARTPTS[a1];[0:v]trim=start=5.000,setpts=PTS-STARTPTS[v2];[0:a]atrim=start=5.000,asetpts=PTS-STARTPTS[a2];[v1][a1][v2][a2]concat=n=2:v=1:a=1[vout][aout] -map [vout] -map [aout] -c:v libx264 -pix_fmt yuv420p -preset veryfast -crf 20 -c:a aac -movflags +faststart /Users/edrlu/Documents/Cerebra/regen/job_1782033470619_3oog9i/final.mp4
[2026-06-21T09:21:33.927Z] merge-ffmpeg OK in 4.74s
stderr:
ARMv8 NEON DotProd I8MM
[libx264 @ 0xca0c41880] profile High, level 4.0, 4:2:0, 8-bit
[libx264 @ 0xca0c41880] 264 - core 165 r3222 b35605a - H.264/MPEG-4 AVC codec - Copyleft 2003-2025 - http://www.videolan.org/x264.html - options: cabac=1 ref=1 deblock=1:0:0 analyse=0x3:0x113 me=hex subme=2 psy=1 psy_rd=1.00:0.00 mixed_ref=0 me_range=16 chroma_me=1 trellis=0 8x8dct=1 cqm=0 deadzone=21,11 fast_pskip=1 chroma_qp_offset=0 threads=15 lookahead_threads=5 sliced_threads=0 nr=0 decimate=1 interlaced=0 bluray_compat=0 constrained_intra=0 bframes=3 b_pyramid=2 b_adapt=1 b_bias=0 direct=1 weightb=1 open_gop=0 weightp=1 keyint=250 keyint_min=23 scenecut=40 intra_refresh=0 rc_lookahead=10 rc=crf mbtree=1 crf=20.0 qcomp=0.60 qpmin=0 qpmax=69 qpstep=4 ip_ratio=1.40 aq=1:1.00
Output #0, mp4, to '/Users/edrlu/Documents/Cerebra/regen/job_1782033470619_3oog9i/final.mp4':
  Metadata:
    major_brand     : isom
    minor_version   : 512
    compatible_brands: isomav01iso2mp41
    encoder         : Lavf62.12.100
  Stream #0:0: Video: h264 (avc1 / 0x31637661), yuv420p(tv, bt709/unknown/unknown, progressive), 1920x1080 [SAR 1:1 DAR 16:9], q=2-31, 23.98 fps, 24k tbn
    Metadata:
      encoder         : Lavc62.28.100 libx264
    Side data:
      CPB properties: bitrate max/min/avg: 0/0/0 buffer size: 0 vbv_delay: N/A
  Stream #0:1: Audio: aac (LC) (mp4a / 0x6134706D), 44100 Hz, stereo, fltp, 128 kb/s
    Metadata:
      encoder         : Lavc62.28.100 aac
frame=   47 fps=0.0 q=25.0 size=     512KiB time=00:00:01.87 bitrate=2234.9kbits/s speed= 3.7x elapsed=0:00:00.50    frame=   67 fps= 66 q=25.0 size=    1024KiB time=00:00:02.71 bitrate=3094.4kbits/s speed=2.68x elapsed=0:00:01.01    frame=  195 fps=129 q=25.0 size=    2304KiB time=00:00:08.04 bitrate=2344.8kbits/s speed=5.32x elapsed=0:00:01.51    frame=  300 fps=149 q=25.0 size=    4096KiB time=00:00:12.42 bitrate=2699.7kbits/s speed=6.17x elapsed=0:00:02.01    frame=  408 fps=162 q=25.0 size=    4608KiB time=00:00:16.93 bitrate=2229.2kbits/s speed=6.72x elapsed=0:00:02.52    frame=  495 fps=164 q=22.0 size=    6144KiB time=00:00:20.56 bitrate=2447.8kbits/s speed= 6.8x elapsed=0:00:03.02    frame=  577 fps=163 q=22.0 size=    7168KiB time=00:00:23.98 bitrate=2448.5kbits/s speed= 6.8x elapsed=0:00:03.52    frame=  616 fps=153 q=25.0 size=    8192KiB time=00:00:25.60 bitrate=2620.5kbits/s speed=6.35x elapsed=0:00:04.03    frame=  679 fps=150 q=25.0 size=    9984KiB time=00:00:28.23 bitrate=2896.6kbits/s speed=6.22x elapsed=0:00:04.53    [mp4 @ 0xca1037200] Starting second pass: moving the moov atom to the beginning of the file
[out#0/mp4 @ 0xca0c0c780] video:10199KiB audio:406KiB subtitle:0KiB other streams:0KiB global headers:0KiB muxing overhead: 0.224245%
frame=  721 fps=154 q=-1.0 Lsize=   10629KiB time=00:00:29.98 bitrate=2903.5kbits/s speed=6.39x elapsed=0:00:04.69    
[libx264 @ 0xca0c41880] frame I:16    Avg QP: 9.29  size: 84317
[libx264 @ 0xca0c41880] frame P:217   Avg QP:16.12  size: 27456
[libx264 @ 0xca0c41880] frame B:488   Avg QP:19.21  size:  6427
[libx264 @ 0xca0c41880] consecutive B-frames:  5.8%  9.2%  7.9% 77.1%
[libx264 @ 0xca0c41880] mb I  I16..4: 63.0% 16.7% 20.4%
[libx264 @ 0xca0c41880] mb P  I16..4: 11.9%  8.7%  1.8%  P16..4: 14.6%  7.9%  4.1%  0.0%  0.0%    skip:51.0%
[libx264 @ 0xca0c41880] mb B  I16..4:  1.1%  1.1%  0.1%  B16..8:  9.1%  2.7%  0.4%  direct: 3.2%  skip:82.2%  L0:37.4% L1:46.4% BI:16.2%
[libx264 @ 0xca0c41880] 8x8 transform intra:35.2% inter:34.3%
[libx264 @ 0xca0c41880] coded y,uvDC,uvAC intra: 34.4% 35.1% 15.4% inter: 4.2% 5.5% 0.4%
[libx264 @ 0xca0c41880] i16 v,h,dc,p: 72% 16%  7%  6%
[libx264 @ 0xca0c41880] i8 v,h,dc,ddl,ddr,vr,hd,vl,hu: 34% 18% 20%  2%  6%  6%  5%  5%  4%
[libx264 @ 0xca0c41880] i4 v,h,dc,ddl,ddr,vr,hd,vl,hu: 28% 18% 16%  3% 10%  7%  7%  6%  6%
[libx264 @ 0xca0c41880] i8c dc,h,v,p: 63% 12% 20%  5%
[libx264 @ 0xca0c41880] Weighted P-Frames: Y:1.4% UV:0.9%
[libx264 @ 0xca0c41880] kb/s:2778.26
[aac @ 0xca0c41f80] Qavg: 11636.675

[2026-06-21T09:21:33.928Z] /complete merge OK in 4.8s; final=/Users/edrlu/Documents/Cerebra/regen/job_1782033470619_3oog9i/final.mp4
